<svg id="svg" xmlns="http://www.w3.org/2000/svg" viewBox="0 0 450 522.78">
    <defs>
        <style>.cls-1{fill:#fafbfb;}.cls-1,.cls-2{fill-rule:evenodd;}.cls-2{fill:#4c94d3;}</style>
    </defs>
    <g id="svgg">
        <path id="path0" class="cls-1"
              d="M217.83,57.33C10.68,101.69,162.76,272.65,231.67,369c-16.48,66.37-133.06,14.72-162.5-20.88-27.39,1.15,4.62,48.33,22.22,51.29C524.44,493.89,28.67,98.09,272.48,91.94c13.23,12.73-28.43,90.49,2.1,85,10.91-35.29,103.75-97.66,39.45-116-11.94-4.37-15.81,8.1-24.69,13.73-24.37-3.18-43.57-21.82-71.51-17.3M-31.36,491.81c107.09,2.63,334.58,1.09,442.72.53-105.36-3.66-336.31-2.11-442.72-.53"
              transform="translate(35 27.5)"/>
        <path id="path1" class="cls-2"
              d="M-31.36,233.89c10.8,245.92-74.85,275.5,221.37,256.8,295.75,18.52,210.79-10.33,221.34-256.82C400.56-12,486.21-41.61,190-22.91-105.75-41.43-20.8-12.58-31.36,233.89m269-175.76c12.35,1.22,26.15,7.7,37.27,12.6,11.76,10.54,19.84-.69,27.33-8.19,11.87-7.75,45.85,8.47,35.71,24C322.27,108.67,308,128.43,292.44,150c-19,32.6-32.08,46.49-26.49-4-2.06-17.66,17.52-39.43,6.54-54-39.07-7.5-73.55,18.93-74.58,58,.09,53.91,42.57,93.33,65.73,137.83,65.06,111.11-70.88,154.74-158,117.56-17.29-5.5-36-16.07-44-33.93-4.09-5.64-3-32.25,7.55-23.2,17.66,18.15,39.47,32.05,62.61,41.46C161,402.38,243.36,412,229.42,360.18c-31.22-50.52-78.31-89-105.41-142-40.42-75.63,26.8-175.08,113.58-160"
              transform="translate(35 27.5)"/>
    </g>
</svg>
