<svg xmlns="http://www.w3.org/2000/svg" viewBox="0 0 287.92 83.93">
    <defs>
        <style>.cls-1{fill:#3b97ce;fill-rule:evenodd;}</style>
    </defs>
    <g id="Layer_2">
        <g id="svg">
            <path id="path0" class="cls-1"
                  d="M1,.16.1.27C.07,20.73,0,61.93,0,82.33l1.6,1.6H287l.91-.92V.27C285.51-.24,3.19.13,1,.16M280.47,7.34c.44.41.55,69.26.11,69.86s-208.67.5-209.14,0S71,7.67,71.52,7.3s208.46-.4,209,0M43.72,16.88a21.85,21.85,0,0,1,2.93,1.24c2.67,1.31,2.71,1.31,3.94-.1s1.8-1.48,3.8-.49c2.82,1.39,3,2.27.78,5.11-1.47,1.92-2,2.77-3.43,4.76-1.46,2.17-2.66,3.77-4,5.93-1.93,3.39-2.59-2.3-.88-7.58,1.11-3.42,1.11-3.81,0-4.12-4.53-1.25-9.09,1.76-10.19,6.74-.71,3.17.72,8,3.69,12.39,1.23,1.89,2.34,3.71,3.71,5.78,6.72,10.27,5.33,17.32-4.13,20.93-3.49,1.07-11.41,1.1-15.12-.37-5.32-1.46-8.93-5.1-8-8,.48-1.47,1-1.39,2.86.49a11.76,11.76,0,0,0,1.91,1.67,1.39,1.39,0,0,1,.64.39,34.64,34.64,0,0,0,5.1,2.65,6.53,6.53,0,0,1,1.14.36c7.15,2.74,14.8,0,12.52-4.51a37.5,37.5,0,0,0-5-6.76c-3.67-4.42-7.31-8.89-8.9-11.74-5.18-7.89-3-17.45,4.44-22.84,2.92-2,8.09-2.77,12.1-1.89m53.5,13.71a8.44,8.44,0,0,0-4.77,6.17c-.55,3.29.44,5.52,4.85,10.83,2.19,2.64,2.89,3.64,3.12,4.43.89,3.09-5.46,3-9.64-.11-1.74-1.3-1.67-1.27-2-.68-1.16,2.35,2.9,4.7,8.11,4.7h2.65c4-1.66,6-4.73,3.81-8.91a41.62,41.62,0,0,0-2.86-4.64c-.44-.53-.22-.58-.71-1.3-2.3-3.72-1-8.16,2.41-8.24,1.44,0,1.58.16,1.19,1.63-1,3.72-.47,5.66,1,3.61,1.08-1.54,1.35-1.95,2.52-3.55,1.78-2.43,1.87-3.2.44-3.8-1.18-.62-1.79,0-2.73.65-2.24-1.17-5.2-1.8-7.38-.79M201.07,30a4.91,4.91,0,0,1-1,.38c-.94,0-5.08,3.41-6.64,5.47a32,32,0,0,0-3.67,6.28,17.68,17.68,0,0,0-1.22,4c-.61,3.37-3.5,8.05-4.34,7-.32-.38-.2-.77,1.53-5.11.33-.83.72-1.84.87-2.24.93-2.17,2.15-4,.35-5.77-3.65-4.55-6.3,3.84-7.63,1.26a5.38,5.38,0,0,0-3.13-2.7c-.59-.19-1.68.55-3.43,2.34s-1.85,1.84-2.34.55a4.9,4.9,0,0,0-3.51-3,2.2,2.2,0,0,0-.95,1.84A15.18,15.18,0,0,1,164,45c-1.49,2.56-5.09,7.92-5.56,7.94-.69.26-.77-.76-.16-2.08,2.95-5.92-3-5.75-1.1-7.6,1.22-1.42-1.42-4.69-3.79-4.69-2.56,0-6.72,3.86-9,8.34-1.43,2.81-5.88,6.59-7.62,6.47s-1.83-3.17-.25-3.72c7-2.42,8.91-8.07,3.63-10.88-4.42-2.35-11.28,7.08-9.2,12.64.76,2,3.93,4.18,6,4,1.63-.14,3.85-1.39,5.65-3.19.48-.49.74-.42,1.24.32,2.14,2.47,4.17,4.59,7.83.89,1-1,1.06-1,1.72-.14a5.43,5.43,0,0,0,3.75,2.09c1.18,0,1.53-.21,3.29-1.95,1.21-1.2,1.83-1.23,2.21-.1a3.5,3.5,0,0,0,1.81,2c.81.21,1.3-.31,2.43-2.58A48.87,48.87,0,0,1,169.59,48a24.13,24.13,0,0,1,2.29-3.2,5.8,5.8,0,0,0,.71-.87c.19-.36.21-.35.21.13a.86.86,0,0,1-.16.61c-.29.41-.4,1.81-.76,2.35-1.26,2.47-1.83,5.71-1.18,6.76,1.41,2.28,2.9,2.39,4,.28.6-1.19,1.75-3.34,2.33-4.34.16-.27.79-1.24,1.42-2.17,1.48-2.19,1.79-2.65,1.84-2.79,1-.77,1,.22.21,2-.59,1.23-.31,1.49-.82,2.75-.88,2.24-.41,3.83,1.56,5.19s3.49,1.06,6-1.6c1.21-1.26,1.66-1.32,2.27-.3,1.66,2.79,7,3.49,10.67,1.42a16.35,16.35,0,0,0,3.7-2.52c.65-.69,1.71-.7,1.58,0-.21,1.11,1.25,3.45,2.36,3.78.72.22,1.16-.23,2.15-2.22a46.67,46.67,0,0,1,3.69-6.29c1.68-2.58,3-3.8,2.31-2-.36.74-.44,1.78-.82,2.42a32.23,32.23,0,0,0-1,3.38c-.5,1.59.08,2.78,2,4s3.41,1,5.61-1.36c1-1.06,1.08-1.06,2.39.16,2.87,2.68,4.52,2.65,7.22-.14.81-.84,1-.84,1.6,0,4.3,5.72,7.73-2.24,8.62-.23a8.89,8.89,0,0,0,2.53,2.1,3.4,3.4,0,0,0,3.27-.31c5.49-3.65,10-9.41,8.47-10.81-.5-.44-.48-.46-1.77,1.25-2.92,3.9-6.63,7.91-7.32,7.91-.94,0-.05-3.37,2.47-9.37,1.27-3,1.17-2.94,3.23-2.94,2.32,0,2.59-1.37.35-1.8-1.09-.21-1.44-.54-1.14-1.09.84-1.56-1-4.62-2.95-4.83-1.09-.13-1.43.14-1.43,1.12a6.31,6.31,0,0,1-.45,1.82c-.57,1.32-.87,3.13-2.41,3.26-1,0-1.39,1.44-.55,2.31.67.71.66.52.09,1.6a4.33,4.33,0,0,0-.47,1.15c0,.64-3.06,5.7-4.45,7.35l-.67.81c-.82,1-1-.65-.3-2.4,1-2.46.81-3.77-.72-5-1-.81-1-1.1-.52-2.13.64-1.26-.87-3.51-2.87-4.27-2.53-1-7.27,2.8-9.86,7.83-1.86,3.62-4.64,7.11-5.21,6.54-.26-.22,1.15-3.74,1.48-4.74s.82-1.67.95-2.37a2.33,2.33,0,0,1,.34-.85,12.9,12.9,0,0,0,1.17-3.2c0-1.76-3-4-4.33-3.19a16.43,16.43,0,0,0-3.06,2.91c0,.09-.17.17-.38.17-1-.13.41-2.09.58-2.92a28.81,28.81,0,0,1,1.4-3.52,4,4,0,0,0-1.26-4.74c-2.21-1.41-2.77-1.27-3,.75a12.78,12.78,0,0,1-1,3.13c-.14.42-.56,1.48-.94,2.37-1.12,2.65-1.56,4.18-3,7.11-.71,1.5-4.86,5.54-7.56,7.36-5.46,3.67-8,2.68-6.53-2.53,1.29-7.2,9-18.24,12.17-16.51.39.21.39.21-.09,2-.74,2.72-.81,3-.81,3.85-.26,4.22,4-3.79,5-4.94,1.4-2,.8-2.83-2.11-2.85A6,6,0,0,1,205,30a5.2,5.2,0,0,0-4,0m-88,3.32c-.5.21-.59.36-.68,1.19-.26,2.12-1.5,4.66-2.38,4.83-1.42.29-2,1.55-1.08,2.41.65.6.53,1.11-1.22,5.3-1.89,4.54-1.76,5.92.75,7.7a2.81,2.81,0,0,0,2.18.73c1.18,0,1.08,0,3.29-1.46.34-.24,1-.79,1.55-1.22,1.53-1.32,1.8-1.31,2.33.13,1,2.64,3.9,3.55,3.91,1.22,0-1.9,2.49-7.13,4.7-9.9.78-1,1-.89,1,.44,0,3,.7,2.7,4.37-2a2.57,2.57,0,0,0-.49-3.63c-1.47-1.47-3.36.93-5.26,2.63-1.55-2.6-4.65-4.14-4.68-1.54A23,23,0,0,1,120,44c-1.12,2.57-7.69,9.79-8.46,9.31-.26-.16-.21-1.17.08-1.75a5,5,0,0,0,.4-1.18c.2-1,.79-2.05,1.1-3,.94-2.89,1.24-3,1.83-4.64.41-1.49.72-1.7,2.65-1.77,2.6-.1,2.86-1.35.38-1.82l-1-.2V37.44c0-2.63-2.09-4.89-3.82-4.16m28.25,9.36A8.13,8.13,0,0,1,139.61,46c-1.46,1.37-3,1.78-2.72.72.5-2,4.46-5.62,4.46-4.07m14.67.82c.16.25.08.45-.4.94a12.18,12.18,0,0,0-1.38,2c-3.43,6.23-7.75,9.69-5.4,4.33,2.14-4.89,6.14-9,7.18-7.31m79.58-.13c.37.15.19.62-.45,1.15a5.81,5.81,0,0,0-1,1.43c-1.78,3.3-5,7.46-5.72,7.32-2.19-.06,4-11.32,7.2-9.9"/>
        </g>
    </g>
</svg>
