<svg width="287.92" height="83.93" xmlns="http://www.w3.org/2000/svg">

    <g>
        <title>Layer 1</title>
        <g stroke="null" id="Layer_2">
            <g stroke="null" id="svg">
                <path stroke="null" fill-rule="evenodd" fill="#3b97ce"
                      d="m0.24578,-0.34395l-0.90475,0.11166c-0.03016,20.76858 -0.10053,62.58997 -0.10053,83.29765l1.60844,1.62413l286.90576,0l0.9148,-0.93388l0,-83.98791c-2.41266,-0.51769 -286.22217,-0.14211 -288.42373,-0.11166m280.94447,7.28829c0.44232,0.41618 0.5529,70.3046 0.11058,70.91365s-209.77094,0.50754 -210.24342,0s-0.44232,-70.57867 0.08042,-70.95425s209.55983,-0.40603 210.10268,0m-238.04935,9.72449a21.96528,22.17955 0 0 1 2.94546,1.2587c2.68409,1.32976 2.7243,1.32976 3.96079,-0.10151s1.8095,-1.50232 3.82005,-0.49739c2.83488,1.41096 3.01583,2.30424 0.78412,5.18707c-1.47776,1.94896 -2.01055,2.81178 -3.4481,4.83179c-1.4677,2.20273 -2.67403,3.82686 -4.0211,6.01944c-1.94018,3.44113 -2.60366,-2.33469 -0.88464,-7.69432c1.11586,-3.47158 1.11586,-3.86746 0,-4.18214c-4.5539,-1.26885 -9.13796,1.78654 -10.24376,6.84165c-0.71375,3.21781 0.7238,8.12066 3.70947,12.57687c1.23649,1.91851 2.35235,3.76596 3.72957,5.86718c6.75545,10.42489 5.35812,17.58123 -4.15179,21.24567c-3.50841,1.08614 -11.4702,1.11659 -15.19977,-0.37558c-5.34807,-1.48202 -8.97711,-5.17692 -8.04221,-8.12066c0.48253,-1.49217 1.00528,-1.41096 2.87509,0.49739a11.82205,11.93737 0 0 0 1.92008,1.69519a1.39733,1.41096 0 0 1 0.64338,0.39588a34.82276,35.16245 0 0 0 5.12691,2.68997a6.56445,6.62849 0 0 1 1.14601,0.36543c7.18772,2.78133 14.87808,0 12.58606,-4.57802a37.69785,38.06559 0 0 0 -5.02638,-6.86196c-3.68936,-4.48666 -7.34857,-9.02408 -8.94696,-11.91707c-5.20733,-8.009 -3.01583,-17.71319 4.46343,-23.18448c2.93541,-2.03016 8.13268,-2.81178 12.16384,-1.91851m53.78226,13.91678a8.48453,8.56729 0 0 0 -4.79517,6.26306c-0.5529,3.33962 0.44232,5.60325 4.87559,10.99334c2.20155,2.67982 2.90525,3.6949 3.13646,4.49681c0.8947,3.1366 -5.48881,3.04525 -9.69086,-0.11166c-1.74918,-1.31961 -1.67881,-1.28915 -2.01055,-0.69026c-1.16612,2.38544 2.9153,4.77089 8.15279,4.77089l2.66398,0c4.0211,-1.68504 6.03166,-4.80134 3.8301,-9.04438a41.83959,42.24772 0 0 0 -2.87509,-4.70998c-0.44232,-0.53799 -0.22116,-0.58875 -0.71375,-1.31961c-2.31213,-3.77611 -1.00528,-8.28307 2.42272,-8.36428c1.4476,0 1.58834,0.16241 1.19628,1.65458c-1.00528,3.77611 -0.47248,5.74537 1.00528,3.66445c1.0857,-1.56323 1.35712,-1.97941 2.5333,-3.60354c1.78939,-2.46665 1.87987,-3.24826 0.44232,-3.85731c-1.18623,-0.62935 -1.79944,0 -2.7444,0.6598c-2.25182,-1.18765 -5.22744,-1.82715 -7.41894,-0.80191m104.47833,-0.6395a4.9359,4.98405 0 0 1 -1.00528,0.38573c-0.94496,0 -5.1068,3.46143 -6.67503,5.5525a32.16883,32.48263 0 0 0 -3.68936,6.37472a17.77328,17.94665 0 0 0 -1.22644,4.06033c-0.61322,3.42083 -3.51847,8.17141 -4.3629,7.10558c-0.32169,-0.38573 -0.20106,-0.78161 1.53807,-5.18707c0.33174,-0.84252 0.7238,-1.86775 0.87459,-2.27378c0.93491,-2.20273 2.16134,-4.06033 0.35185,-5.85702c-3.66926,-4.61862 -6.33324,3.89792 -7.67026,1.279a5.40838,5.46114 0 0 0 -3.14651,-2.74072c-0.59311,-0.19287 -1.68886,0.5583 -3.4481,2.37529s-1.85976,1.86775 -2.35235,0.5583a4.92585,4.9739 0 0 0 -3.52852,-3.04525a2.21161,2.23318 0 0 0 -0.95501,1.86775a15.26009,15.40895 0 0 1 -1.97034,4.77089c-1.49786,2.59861 -5.11685,8.03945 -5.58933,8.05975c-0.69364,0.26392 -0.77406,-0.77146 -0.16084,-2.11137c2.96556,-6.00929 -3.01583,-5.83672 -1.1058,-7.71463c1.22644,-1.44142 -1.42749,-4.76074 -3.81,-4.76074c-2.57351,0 -6.75545,3.91822 -9.04748,8.46579c-1.43754,2.85238 -5.91102,6.68939 -7.6602,6.56758s-1.83966,-3.21781 -0.25132,-3.77611c7.03693,-2.4565 8.95701,-8.19171 3.64915,-11.0441c-4.44332,-2.38544 -11.33951,7.18678 -9.24854,12.83064c0.76401,2.03016 3.95073,4.24304 6.03166,4.06033c1.6386,-0.14211 3.87031,-1.41096 5.67981,-3.23811c0.48253,-0.49739 0.7439,-0.42633 1.24654,0.32483c2.15129,2.50725 4.192,4.65923 7.87131,0.90342c1.00528,-1.01508 1.06559,-1.01508 1.72907,-0.14211a5.45865,5.5119 0 0 0 3.76978,2.12152c1.18623,0 1.53807,-0.21317 3.30736,-1.97941c1.21638,-1.2181 1.83966,-1.24855 2.22166,-0.10151a3.51847,3.55279 0 0 0 1.81955,2.03016c0.81427,0.21317 1.30686,-0.31468 2.44282,-2.61891a49.12784,49.60707 0 0 1 2.7243,-4.83179a24.25731,24.49394 0 0 1 2.30208,-3.24826a5.8306,5.88748 0 0 0 0.71375,-0.88312c0.191,-0.36543 0.21111,-0.35528 0.21111,0.13196a0.86454,0.87297 0 0 1 -0.16084,0.6192c-0.29153,0.41618 -0.40211,1.8373 -0.76401,2.38544c-1.26665,2.50725 -1.83966,5.79612 -1.18623,6.86196c1.41744,2.31439 2.9153,2.42605 4.0211,0.28422c0.60317,-1.20795 1.75923,-3.39037 2.34229,-4.40546c0.16084,-0.27407 0.79417,-1.2587 1.42749,-2.20273c1.48781,-2.22303 1.79944,-2.68997 1.84971,-2.83208c1.00528,-0.78161 1.00528,0.22332 0.21111,2.03016c-0.59311,1.24855 -0.31164,1.51247 -0.82433,2.79148c-0.88464,2.27378 -0.41216,3.88777 1.56823,5.26828s3.50841,1.07599 6.03166,-1.62413c1.21638,-1.279 1.66876,-1.33991 2.28198,-0.30452c1.66876,2.83208 7.03693,3.54264 10.72629,1.44142a16.43626,16.5966 0 0 0 3.71952,-2.55801c0.65343,-0.70041 1.71902,-0.71056 1.58834,0c-0.21111,1.12674 1.25659,3.50203 2.37245,3.83701c0.7238,0.22332 1.16612,-0.23347 2.16134,-2.25348a46.91623,47.37389 0 0 1 3.70947,-6.38487c1.68886,-2.61891 3.01583,-3.85731 2.32219,-2.03016c-0.3619,0.75116 -0.44232,1.80685 -0.82433,2.4565a32.40004,32.7161 0 0 0 -1.00528,3.43098c-0.50264,1.61398 0.08042,2.82193 2.01055,4.06033s3.42799,1.01508 5.6396,-1.38051c1.00528,-1.07599 1.0857,-1.07599 2.40261,0.16241c2.88514,2.72042 4.54385,2.68997 7.25809,-0.14211c0.81427,-0.85267 1.00528,-0.85267 1.60844,0c4.32269,5.80627 7.77078,-2.27378 8.66548,-0.23347a8.9369,9.02408 0 0 0 2.54335,2.13167a3.41794,3.45128 0 0 0 3.28725,-0.31468c5.51897,-3.70505 10.05276,-9.55192 8.51469,-10.97304c-0.50264,-0.44664 -0.48253,-0.46694 -1.77934,1.26885c-2.93541,3.95882 -6.66498,8.0293 -7.35862,8.0293c-0.94496,0 -0.05026,-3.42083 2.48303,-9.51132c1.2767,-3.04525 1.17617,-2.98434 3.24704,-2.98434c2.33224,0 2.60366,-1.39066 0.35185,-1.82715c-1.09575,-0.21317 -1.4476,-0.54814 -1.14601,-1.10644c0.84443,-1.58353 -1.00528,-4.68968 -2.96556,-4.90285c-1.09575,-0.13196 -1.43754,0.14211 -1.43754,1.13689a6.34329,6.40517 0 0 1 -0.45237,1.84745c-0.57301,1.33991 -0.87459,3.17721 -2.42272,3.30917c-1.00528,0 -1.39733,1.46172 -0.5529,2.34484c0.67353,0.72071 0.66348,0.52784 0.09047,1.62413a4.35284,4.39531 0 0 0 -0.47248,1.16734c0,0.64965 -3.07614,5.78597 -4.47348,7.46085l-0.67353,0.82222c-0.82433,1.01508 -1.00528,-0.6598 -0.30158,-2.4362c1.00528,-2.4971 0.81427,-3.82686 -0.7238,-5.07541c-1.00528,-0.82222 -1.00528,-1.11659 -0.52274,-2.16213c0.64338,-1.279 -0.87459,-3.56294 -2.88514,-4.3344c-2.54335,-1.01508 -7.30836,2.84223 -9.91202,7.94809c-1.86981,3.6746 -4.66448,7.21723 -5.23749,6.63864c-0.26137,-0.22332 1.15607,-3.79641 1.48781,-4.81149s0.82433,-1.69519 0.95501,-2.40574a2.34229,2.36514 0 0 1 0.34179,-0.86282a12.96806,13.09456 0 0 0 1.17617,-3.24826c0,-1.78654 -3.01583,-4.06033 -4.35284,-3.23811a16.51668,16.6778 0 0 0 -3.07614,2.95389c0,0.09136 -0.1709,0.17256 -0.382,0.17256c-1.00528,-0.13196 0.41216,-2.12152 0.58306,-2.96404a28.962,29.24452 0 0 1 1.40739,-3.57309a4.0211,4.06033 0 0 0 -1.26665,-4.81149c-2.22166,-1.43127 -2.78461,-1.28915 -3.01583,0.76131a12.84743,12.97275 0 0 1 -1.00528,3.17721c-0.14074,0.42633 -0.56295,1.50232 -0.94496,2.40574c-1.12591,2.68997 -1.56823,4.24304 -3.01583,7.21723c-0.71375,1.52262 -4.88564,5.62356 -7.59989,7.47101c-5.48881,3.72535 -8.04221,2.72042 -6.56445,-2.56816c1.29681,-7.30859 9.04748,-18.5151 12.23421,-16.75901c0.39206,0.21317 0.39206,0.21317 -0.09047,2.03016c-0.7439,2.76102 -0.81427,3.04525 -0.81427,3.90807c-0.26137,4.28365 4.0211,-3.84716 5.02638,-5.01451c1.40739,-2.03016 0.80422,-2.87268 -2.12113,-2.89298a6.03166,6.09049 0 0 1 -2.94546,-0.5989a5.22744,5.27843 0 0 0 -4.0211,0m-88.46428,3.37007c-0.50264,0.21317 -0.59311,0.36543 -0.68359,1.20795c-0.26137,2.15197 -1.50791,4.73028 -2.39256,4.90285c-1.42749,0.29437 -2.01055,1.57338 -1.0857,2.44635c0.65343,0.60905 0.5328,1.12674 -1.22644,5.37994c-1.89997,4.60847 -1.76929,6.00929 0.75396,7.81613a2.82483,2.85238 0 0 0 2.1915,0.74101c1.18623,0 1.0857,0 3.30736,-1.48202c0.34179,-0.24362 1.00528,-0.80191 1.55818,-1.2384c1.53807,-1.33991 1.8095,-1.32976 2.34229,0.13196c1.00528,2.67982 3.92058,3.60354 3.93063,1.2384c0,-1.92866 2.50314,-7.23754 4.7248,-10.04931c0.78412,-1.01508 1.00528,-0.90342 1.00528,0.44664c0,3.04525 0.70369,2.74072 4.39306,-2.03016a2.58356,2.60876 0 0 0 -0.49259,-3.68475c-1.47776,-1.49217 -3.37773,0.94403 -5.28775,2.66967c-1.55818,-2.63921 -4.67453,-4.20244 -4.70469,-1.56323a23.12135,23.34689 0 0 1 -1.29681,3.90807c-1.12591,2.60876 -7.73057,9.93766 -8.50463,9.45042c-0.26137,-0.16241 -0.21111,-1.18765 0.08042,-1.77639a5.02638,5.07541 0 0 0 0.40211,-1.1978c0.20106,-1.01508 0.79417,-2.08092 1.1058,-3.04525c0.94496,-2.93359 1.24654,-3.04525 1.83966,-4.70998c0.41216,-1.51247 0.7238,-1.72564 2.66398,-1.7967c2.61372,-0.10151 2.87509,-1.37036 0.382,-1.84745l-1.00528,-0.20302l0,-1.53277c0,-2.66967 -2.10103,-4.96375 -3.84015,-4.22274m28.39905,9.50117a8.17289,8.25262 0 0 1 -1.8095,3.41068c-1.4677,1.39066 -3.01583,1.80685 -2.73435,0.73086c0.50264,-2.03016 4.48353,-5.70476 4.48353,-4.13138m14.7474,0.83237c0.16084,0.25377 0.08042,0.45679 -0.40211,0.95418a12.24426,12.3637 0 0 0 -1.38728,2.03016c-3.4481,6.32396 -7.79089,9.83615 -5.42849,4.39531c2.15129,-4.96375 6.17239,-9.13574 7.21788,-7.42025m79.99986,-0.13196c0.37195,0.15226 0.191,0.62935 -0.45237,1.16734a5.84065,5.89763 0 0 0 -1.00528,1.45157c-1.78939,3.34977 -5.02638,7.57251 -5.75018,7.4304c-2.20155,-0.0609 4.0211,-11.49073 7.23799,-10.04931"
                      class="cls-1" id="path0"/>
            </g>
        </g>
    </g>
</svg>
